<svg width="34" height="40" viewBox="0 0 34 40" fill="none" xmlns="http://www.w3.org/2000/svg">
<path d="M25.6036 22.2666L24.2532 20.9162C24.2191 20.8821 24.231 20.8248 24.2747 20.8058C24.7516 20.5999 25.1974 20.3345 25.6036 20.0205C25.749 19.9077 25.8889 19.7892 26.0232 19.6644C26.4151 19.3004 26.7592 18.8864 27.0453 18.4317C27.0461 18.4301 27.0469 18.4293 27.0477 18.4278C27.221 18.152 27.3736 17.8611 27.5023 17.5583C27.8131 16.8271 27.9863 16.0235 27.9895 15.1795C27.9895 15.1795 27.9895 15.1787 27.9895 15.1779C27.9895 15.1699 27.9895 15.162 27.9895 15.154C27.9895 14.3108 27.8202 13.508 27.5134 12.776C27.4109 12.5304 27.2925 12.2928 27.1598 12.0647C27.1598 12.0631 27.1582 12.0623 27.1582 12.0615C26.5613 11.0362 25.6767 10.2001 24.6157 9.66206C24.6117 9.65967 24.6069 9.65729 24.6029 9.6557C23.7819 9.24162 22.3942 9.00636 21.4135 9C21.3999 9 21.849 9 21.8355 9C21.822 9 21.8093 9 21.7958 9H8.83357C7.82101 9 7 9.82101 7 10.8336V23.9078C7 24.3314 7.04292 24.7455 7.12478 25.1453C7.12478 25.1461 7.12478 25.1469 7.12478 25.1485C7.27738 25.894 7.56509 26.591 7.9609 27.2117C7.9609 27.2133 7.96249 27.2141 7.96328 27.2157C8.62613 28.2545 9.59259 29.0811 10.7371 29.5699C10.7411 29.5715 10.745 29.5731 10.749 29.5746C10.7578 29.5786 10.7673 29.5826 10.776 29.5866C11.365 29.8337 12 29.9911 12.6652 30.0436C12.8266 30.0563 12.9887 30.0626 13.1532 30.0626C14.0021 30.0626 14.8104 29.891 15.5455 29.5802C16.0645 29.3608 16.5478 29.0723 16.9833 28.7258C16.9841 28.7258 16.9849 28.725 16.9857 28.7242C16.9936 28.7179 17.0024 28.7115 17.0103 28.7044C17.0127 28.7028 17.0151 28.7004 17.0175 28.6988C17.581 28.2434 18.0626 27.691 18.4362 27.0663C18.9655 26.1817 19.2795 25.154 19.3049 24.0548V24.0525C19.3057 24.0048 19.3065 23.9571 19.3065 23.9094C19.3065 23.8617 19.3065 23.814 19.3049 23.7663V21.5688C19.3049 21.4742 19.4193 21.4265 19.4861 21.4933L25.0591 27.0663L26.3634 28.3705C26.965 28.9722 27.9927 28.5462 27.9927 27.6958V25.3408C27.9927 24.9053 27.8194 24.4872 27.5111 24.1788L25.6004 22.2682L25.6036 22.2666ZM21.8331 17.5583H15.9628C15.7331 17.5583 15.5463 17.7442 15.5463 17.9747V23.9595V23.9603C15.4708 25.6389 13.7819 26.7261 12.2313 26.0768C11.3936 25.7263 10.8269 24.918 10.776 24.0032V13.1432C10.776 12.9429 10.939 12.78 11.1392 12.78L16.1575 12.7768C16.1575 12.7768 16.1575 12.7784 16.1567 12.7792C17.2098 12.7792 18.2971 12.7792 19.3065 12.7792C20.2491 12.7792 21.1242 12.7792 21.8395 12.7808C23.1342 12.7824 24.2024 13.8601 24.2071 15.1509C24.2119 16.4742 23.162 17.54 21.8331 17.5591V17.5583Z" fill="#E8562E"/>
</svg>
