<svg width="224" height="40" viewBox="0 0 224 40" fill="none" xmlns="http://www.w3.org/2000/svg">
<path d="M38.3943 13.217L38.4031 13.088H38.5225V10.838V10.7498L38.4403 10.7178C38.0294 10.558 37.5325 10.496 37.0138 10.496C34.9504 10.496 33.3442 11.451 32.5235 13.115V10.8682V10.7392H32.3945H29.875H29.746V10.8682V26.2545V26.3835H29.875H32.3945H32.5235V26.2545V18.3789C32.5235 16.5879 32.9469 15.278 33.717 14.4168C34.4849 13.558 35.6154 13.1256 37.0742 13.1256C37.4802 13.1256 37.862 13.1506 38.2645 13.2011V13.217H38.3935H38.3943Z" fill="#101928" stroke="#101928" stroke-width="0.257966"/>
<path d="M54.4444 26.3866H54.5734V26.2576V11.0003V10.8713V10.8705H54.4444V10.7423H51.9249H51.7959V10.8713V13.1619C50.7775 11.4101 48.6926 10.3163 46.3153 10.3163C42.0616 10.3163 38.957 13.7625 38.957 18.5641C38.957 23.3656 42.0616 26.8126 46.3153 26.8126C48.6926 26.8126 50.7775 25.7188 51.7959 23.967V26.2576V26.3866H51.9249H54.4444ZM50.5077 14.5129L50.5076 14.5129L50.509 14.5144C51.4438 15.5506 51.916 16.9166 51.916 18.5633C51.916 20.2099 51.4438 21.5759 50.509 22.6121L50.5077 22.6137C49.6043 23.6475 48.3812 24.1814 46.8852 24.1814C45.3899 24.1814 44.166 23.6479 43.2318 22.6129C42.3264 21.5762 41.8544 20.2096 41.8544 18.5633C41.8544 16.9169 42.3264 15.5503 43.2318 14.5136C44.166 13.4786 45.3899 12.9451 46.8852 12.9451C48.3812 12.9451 49.6043 13.4791 50.5077 14.5129Z" fill="#101928" stroke="#101928" stroke-width="0.257966"/>
<path d="M71.0054 10.8672V10.7382H70.8765H70.8749H68.3554H68.2264V10.8672V19.5939C68.2264 20.8358 67.7461 21.8724 66.9345 22.5997C66.1217 23.3281 64.969 23.7528 63.6161 23.7528C62.4538 23.7528 61.6271 23.4404 61.0864 22.7954C60.5414 22.1454 60.2655 21.1329 60.2655 19.6853V10.8672V10.7382H60.1365H57.617H57.488V10.8672V20.2934C57.488 22.2455 57.9962 23.7707 58.9508 24.8089C59.9069 25.8487 61.2947 26.3824 63.0168 26.3824C65.3345 26.3824 67.2364 25.4465 68.2272 23.7465V24.7632C68.2272 26.6146 67.7818 27.9854 66.9668 28.8924C66.1539 29.7971 64.9557 30.2598 63.407 30.2598C61.6359 30.2598 59.9281 29.6315 58.7246 28.53L58.6233 28.4372L58.5371 28.5442L57.0675 30.369L56.9961 30.4577L57.0752 30.5395C58.5156 32.0311 60.8928 32.8902 63.4674 32.8902C65.8332 32.8902 67.7233 32.1825 69.0209 30.801C70.3173 29.4207 71.0054 27.3856 71.0054 24.764V10.8672Z" fill="#101928" stroke="#101928" stroke-width="0.257966"/>
<path d="M87.2803 26.3874H87.4092V26.2584V26.2576V16.4054C87.4092 14.484 86.9163 12.959 85.9695 11.9132C85.021 10.8656 83.6329 10.3163 81.8805 10.3163C79.5699 10.3163 77.6961 11.2473 76.7305 12.939V10.8713V10.7423H76.6015H74.082H73.953V10.8713V26.2584V26.3874H74.082H76.6015H76.7305V26.2584V17.1056C76.7305 15.8477 77.2042 14.8112 78.0043 14.0881C78.8057 13.364 79.9432 12.9467 81.2812 12.9467C82.4586 12.9467 83.2849 13.2594 83.8217 13.9038C84.363 14.5537 84.6318 15.566 84.6318 17.0142V26.2584V26.3874H84.7608H87.2803Z" fill="#101928" stroke="#101928" stroke-width="0.257966"/>
<path d="M105.335 26.3866H105.464V26.2576V11.0003V10.8713V10.8705H105.335V10.7423H102.816H102.687V10.8713V13.1619C101.668 11.4101 99.5832 10.3163 97.2059 10.3163C92.9522 10.3163 89.8476 13.7625 89.8476 18.5641C89.8476 23.3656 92.9522 26.8126 97.2059 26.8126C99.5832 26.8126 101.668 25.7188 102.687 23.967V26.2576V26.3866H102.816H105.335ZM101.398 14.5129L101.398 14.5129L101.4 14.5144C102.334 15.5506 102.807 16.9166 102.807 18.5633C102.807 20.2099 102.334 21.5759 101.4 22.6121L101.398 22.6137C100.495 23.6475 99.2718 24.1814 97.7758 24.1814C96.2805 24.1814 95.0566 23.6479 94.1224 22.6129C93.217 21.5762 92.745 20.2096 92.745 18.5633C92.745 16.9169 93.217 15.5503 94.1225 14.5136C95.0566 13.4786 96.2805 12.9451 97.7758 12.9451C99.2718 12.9451 100.495 13.4791 101.398 14.5129Z" fill="#101928" stroke="#101928" stroke-width="0.257966"/>
<path d="M116.904 10.8672V10.7382H116.775H114.255H114.254H114.125V10.8672V20.5072C114.125 22.3635 114.789 23.9417 115.961 25.0555C117.132 26.1688 118.8 26.8092 120.793 26.8092C122.786 26.8092 124.455 26.1688 125.626 25.0555C126.797 23.9417 127.462 22.3635 127.462 20.5072V10.8672V10.7382H127.333H124.813H124.684V10.8672V20.3546C124.684 21.6072 124.325 22.5583 123.67 23.1968C123.015 23.8357 122.046 24.1788 120.794 24.1788C119.542 24.1788 118.574 23.8357 117.919 23.1968C117.264 22.5583 116.904 21.6072 116.904 20.3546V10.8672Z" fill="#101928" stroke="#101928" stroke-width="0.257966"/>
<path d="M130.707 10.7382H130.578V10.8672V26.2543V26.3832H130.707H133.227H133.355V26.2543V10.8672V10.7382H133.227H130.707Z" fill="#101928" stroke="#101928" stroke-width="0.257966"/>
<path d="M18.6036 21.2666L17.2532 19.9162C17.2191 19.8821 17.231 19.8248 17.2747 19.8058C17.7516 19.5999 18.1974 19.3345 18.6036 19.0205C18.749 18.9077 18.8889 18.7892 19.0232 18.6644C19.4151 18.3004 19.7592 17.8864 20.0453 17.4317C20.0461 17.4301 20.0469 17.4293 20.0477 17.4278C20.221 17.152 20.3736 16.8611 20.5023 16.5583C20.8131 15.8271 20.9863 15.0235 20.9895 14.1795C20.9895 14.1795 20.9895 14.1787 20.9895 14.1779C20.9895 14.1699 20.9895 14.162 20.9895 14.154C20.9895 13.3108 20.8202 12.508 20.5134 11.776C20.4109 11.5304 20.2925 11.2928 20.1598 11.0647C20.1598 11.0631 20.1582 11.0623 20.1582 11.0615C19.5613 10.0362 18.6767 9.20013 17.6157 8.66206C17.6117 8.65967 17.6069 8.65729 17.6029 8.6557C16.7819 8.24162 15.3942 8.00636 14.4135 8C14.3999 8 14.849 8 14.8355 8C14.822 8 14.8093 8 14.7958 8H1.83357C0.821015 8 0 8.82101 0 9.83357V22.9078C0 23.3314 0.0429185 23.7455 0.124782 24.1453C0.124782 24.1461 0.124782 24.1469 0.124782 24.1485C0.277381 24.894 0.565093 25.591 0.960897 26.2117C0.960897 26.2133 0.962487 26.2141 0.963282 26.2157C1.62613 27.2545 2.59259 28.0811 3.73709 28.5699C3.74106 28.5715 3.74503 28.5731 3.74901 28.5746C3.75775 28.5786 3.76729 28.5826 3.77603 28.5866C4.36497 28.8337 5 28.9911 5.66524 29.0436C5.82658 29.0563 5.98872 29.0626 6.15324 29.0626C7.00207 29.0626 7.81037 28.891 8.54555 28.5802C9.06454 28.3608 9.54777 28.0723 9.98332 27.7258C9.98411 27.7258 9.98491 27.725 9.9857 27.7242C9.99365 27.7179 10.0024 27.7115 10.0103 27.7044C10.0127 27.7028 10.0151 27.7004 10.0175 27.6988C10.581 27.2434 11.0626 26.691 11.4362 26.0663C11.9655 25.1817 12.2795 24.154 12.3049 23.0548V23.0525C12.3057 23.0048 12.3065 22.9571 12.3065 22.9094C12.3065 22.8617 12.3065 22.814 12.3049 22.7663V20.5688C12.3049 20.4742 12.4193 20.4265 12.4861 20.4933L18.0591 26.0663L19.3634 27.3705C19.965 27.9722 20.9927 27.5462 20.9927 26.6958V24.3408C20.9927 23.9053 20.8194 23.4872 20.5111 23.1788L18.6004 21.2682L18.6036 21.2666ZM14.8331 16.5583H8.96281C8.73312 16.5583 8.54634 16.7442 8.54634 16.9747V22.9595V22.9603C8.47084 24.6389 6.78192 25.7261 5.23129 25.0768C4.39358 24.7263 3.8269 23.918 3.77603 23.0032V12.1432C3.77603 11.9429 3.93896 11.78 4.13925 11.78L9.15753 11.7768C9.15753 11.7768 9.15753 11.7784 9.15674 11.7792C10.2098 11.7792 11.2971 11.7792 12.3065 11.7792C13.2491 11.7792 14.1242 11.7792 14.8395 11.7808C16.1342 11.7824 17.2024 12.8601 17.2071 14.1509C17.2119 15.4742 16.162 16.54 14.8331 16.5591V16.5583Z" fill="#E8562E"/>
</svg>
