<?xml version="1.0" encoding="UTF-8"?>
<svg width="20" height="20" viewBox="0 0 20 20" fill="none" xmlns="http://www.w3.org/2000/svg">
  <path d="M1.66663 9.99996C1.66663 9.11591 1.84222 8.24199 2.18478 7.43663C2.52734 6.63127 3.03021 5.91088 3.66512 5.31822C4.30003 4.72556 5.05108 4.27235 5.87146 3.98476C6.69184 3.69717 7.56407 3.58154 8.43193 3.64633C9.29979 3.71112 10.1443 3.95483 10.9125 4.36325C11.6806 4.77166 12.3555 5.33673 12.8944 6.02307C13.4333 6.70941 13.8246 7.50145 14.0445 8.34989C14.2644 9.19834 14.3084 10.0832 14.1741 10.9483" stroke="currentColor" stroke-width="1.66667" stroke-linecap="round" stroke-linejoin="round"/>
  <path d="M18.3333 13.3333V10C18.3333 8.23189 17.631 6.53619 16.3807 5.28595C15.1305 4.03571 13.4348 3.33334 11.6667 3.33334" stroke="currentColor" stroke-width="1.66667" stroke-linecap="round" stroke-linejoin="round"/>
  <path d="M15 11.6667C15 11.2246 14.8244 10.8007 14.5118 10.4882C14.1993 10.1756 13.7754 10 13.3333 10H12.5C12.058 10 11.634 10.1756 11.3215 10.4882C11.0089 10.8007 10.8333 11.2246 10.8333 11.6667V15.8333C10.8333 16.2754 11.0089 16.6993 11.3215 17.0118C11.634 17.3244 12.058 17.5 12.5 17.5H13.3333C13.7754 17.5 14.1993 17.3244 14.5118 17.0118C14.8244 16.6993 15 16.2754 15 15.8333V11.6667Z" stroke="currentColor" stroke-width="1.66667" stroke-linecap="round" stroke-linejoin="round"/>
  <path d="M5 11.6667C5 11.2246 4.82441 10.8007 4.51185 10.4882C4.19929 10.1756 3.77536 10 3.33333 10H2.5C2.05797 10 1.63405 10.1756 1.32149 10.4882C1.00893 10.8007 0.833333 11.2246 0.833333 11.6667V15.8333C0.833333 16.2754 1.00893 16.6993 1.32149 17.0118C1.63405 17.3244 2.05797 17.5 2.5 17.5H3.33333C3.77536 17.5 4.19929 17.3244 4.51185 17.0118C4.82441 16.6993 5 16.2754 5 15.8333V11.6667Z" stroke="currentColor" stroke-width="1.66667" stroke-linecap="round" stroke-linejoin="round"/>
</svg> 