<svg width="34" height="34" viewBox="0 0 34 34" fill="none" xmlns="http://www.w3.org/2000/svg">
<path fill-rule="evenodd" clip-rule="evenodd" d="M15.2999 0C6.85001 0 0 6.85001 0 15.2999C0 23.7498 6.85001 30.5999 15.2999 30.5999C18.9124 30.5999 22.2325 29.3479 24.8499 27.2541L31.0978 33.5019C31.7617 34.1658 32.838 34.1658 33.5019 33.5019C34.1658 32.838 34.1658 31.7617 33.5019 31.0978L27.2541 24.8499C29.3479 22.2325 30.5999 18.9124 30.5999 15.2999C30.5999 6.85001 23.7498 0 15.2999 0ZM3.39998 15.2999C3.39998 8.72777 8.72777 3.39998 15.2999 3.39998C21.8721 3.39998 27.1999 8.72777 27.1999 15.2999C27.1999 21.8721 21.8721 27.1999 15.2999 27.1999C8.72777 27.1999 3.39998 21.8721 3.39998 15.2999Z" fill="#667185"/>
</svg>
