<svg width="34" height="34" viewBox="0 0 34 34" fill="none" xmlns="http://www.w3.org/2000/svg">
<path d="M14.5958 12.1917C13.9319 11.5278 12.8555 11.5278 12.1916 12.1917C11.5277 12.8555 11.5277 13.9319 12.1916 14.5958L14.5958 17L12.1916 19.4041C11.5277 20.068 11.5277 21.1444 12.1916 21.8083C12.8555 22.4722 13.9319 22.4722 14.5958 21.8083L16.9999 19.4041L19.4041 21.8083C20.068 22.4722 21.1444 22.4722 21.8082 21.8083C22.4721 21.1444 22.4721 20.068 21.8082 19.4041L19.4041 17L21.8082 14.5958C22.4721 13.9319 22.4721 12.8555 21.8082 12.1917C21.1444 11.5278 20.068 11.5278 19.4041 12.1917L16.9999 14.5958L14.5958 12.1917Z" fill="#CB1A14"/>
<path fill-rule="evenodd" clip-rule="evenodd" d="M17 0C7.61115 0 0 7.61115 0 17C0 26.3888 7.61115 34 17 34C26.3888 34 34 26.3888 34 17C34 7.61115 26.3888 0 17 0ZM3.4 17C3.4 9.48892 9.48892 3.4 17 3.4C24.511 3.4 30.6 9.48892 30.6 17C30.6 24.511 24.511 30.6 17 30.6C9.48892 30.6 3.4 24.511 3.4 17Z" fill="#CB1A14"/>
</svg>
