<svg width="34" height="34" viewBox="0 0 34 34" fill="none" xmlns="http://www.w3.org/2000/svg">
<path d="M23.2482 14.8536C23.9405 14.2195 23.9878 13.1442 23.3536 12.4518C22.7195 11.7594 21.6442 11.7122 20.9518 12.3463L14.6753 18.0947L13.0482 16.6045C12.3558 15.9704 11.2804 16.0176 10.6463 16.71C10.0122 17.4024 10.0594 18.4777 10.7518 19.1119L13.5271 21.6536C14.1769 22.2488 15.1737 22.2488 15.8234 21.6536L23.2482 14.8536Z" fill="#099137"/>
<path fill-rule="evenodd" clip-rule="evenodd" d="M17 0C7.61115 0 0 7.61115 0 17C0 26.3888 7.61115 34 17 34C26.3888 34 34 26.3888 34 17C34 7.61115 26.3888 0 17 0ZM3.4 17C3.4 9.48892 9.48892 3.4 17 3.4C24.511 3.4 30.6 9.48892 30.6 17C30.6 24.511 24.511 30.6 17 30.6C9.48892 30.6 3.4 24.511 3.4 17Z" fill="#099137"/>
</svg>
