<svg width="37" height="30" viewBox="0 0 37 30" fill="none" xmlns="http://www.w3.org/2000/svg">
<path fill-rule="evenodd" clip-rule="evenodd" d="M30.0004 30C33.6823 30 36.6671 27.0152 36.6671 23.3333V8.37114C36.6677 8.34565 36.6677 8.3201 36.6671 8.2945V6.66667C36.6671 2.98477 33.6823 0 30.0004 0H6.66711C2.98521 0 0.00044331 2.98477 0.00044331 6.66667V8.29451C-0.00014916 8.3201 -0.000146378 8.34565 0.00044331 8.37113V23.3333C0.00044331 27.0152 2.98521 30 6.66711 30H30.0004ZM3.33378 23.3333C3.33378 25.1743 4.82616 26.6667 6.66711 26.6667H30.0004C31.8414 26.6667 33.3338 25.1743 33.3338 23.3333V10.7951L20.8097 15.8047C19.2203 16.4404 17.4472 16.4404 15.8578 15.8047L3.33378 10.7951V23.3333ZM19.5717 12.7098L33.3338 7.20495V6.66667C33.3338 4.82572 31.8414 3.33333 30.0004 3.33333H6.66711C4.82616 3.33333 3.33378 4.82572 3.33378 6.66667V7.20495L17.0958 12.7098C17.8905 13.0276 18.777 13.0276 19.5717 12.7098Z" fill="#667185"/>
</svg>
