<?xml version="1.0" encoding="UTF-8"?>
<svg width="20" height="20" viewBox="0 0 20 20" fill="none" xmlns="http://www.w3.org/2000/svg">
  <path d="M16.6667 9.16667H3.33334" stroke="currentColor" stroke-width="1.66667" stroke-linecap="round" stroke-linejoin="round"/>
  <path d="M10 2.5V15.8333" stroke="currentColor" stroke-width="1.66667" stroke-linecap="round" stroke-linejoin="round"/>
  <path d="M7.50001 18.3333H12.5C13.3841 18.3333 14.2319 17.9821 14.8571 17.357C15.4822 16.7319 15.8333 15.884 15.8333 15V5C15.8333 4.11594 15.4822 3.26809 14.8571 2.64297C14.2319 2.01785 13.3841 1.66667 12.5 1.66667H7.50001C6.61595 1.66667 5.7681 2.01785 5.14298 2.64297C4.51786 3.26809 4.16667 4.11594 4.16667 5V15C4.16667 15.884 4.51786 16.7319 5.14298 17.357C5.7681 17.9821 6.61595 18.3333 7.50001 18.3333Z" stroke="currentColor" stroke-width="1.66667" stroke-linecap="round" stroke-linejoin="round"/>
</svg> 