<?xml version="1.0" encoding="UTF-8"?>
<svg width="20" height="20" viewBox="0 0 20 20" fill="none" xmlns="http://www.w3.org/2000/svg">
  <path d="M10 12.5C11.3807 12.5 12.5 11.3807 12.5 10C12.5 8.61929 11.3807 7.5 10 7.5C8.61929 7.5 7.5 8.61929 7.5 10C7.5 11.3807 8.61929 12.5 10 12.5Z" stroke="currentColor" stroke-width="1.66667" stroke-linecap="round" stroke-linejoin="round"/>
  <path d="M16.1667 12.5C16.0558 12.7513 16.0227 13.0302 16.0717 13.3005C16.1207 13.5708 16.2496 13.8203 16.4417 14.0167L16.4917 14.0667C16.6467 14.2215 16.7696 14.4053 16.8535 14.6075C16.9374 14.8097 16.9805 15.0265 16.9805 15.2458C16.9805 15.4652 16.9374 15.682 16.8535 15.8842C16.7696 16.0864 16.6467 16.2702 16.4917 16.425C16.3369 16.58 16.1531 16.7029 15.9509 16.7868C15.7487 16.8707 15.5319 16.9138 15.3125 16.9138C15.0932 16.9138 14.8764 16.8707 14.6742 16.7868C14.472 16.7029 14.2882 16.58 14.1334 16.425L14.0834 16.375C13.887 16.1829 13.6375 16.054 13.3672 16.005C13.0969 15.956 12.818 15.9891 12.5667 16.1C12.3202 16.2056 12.11 16.381 11.962 16.6031C11.814 16.8251 11.7344 17.0834 11.7334 17.3483V17.5C11.7334 17.942 11.5577 18.366 11.2452 18.6785C10.9326 18.9911 10.5087 19.1667 10.0667 19.1667C9.62468 19.1667 9.20076 18.9911 8.8882 18.6785C8.57564 18.366 8.40004 17.942 8.40004 17.5V17.425C8.39359 17.1537 8.30431 16.8907 8.14572 16.6667C7.98713 16.4427 7.76514 16.2683 7.50837 16.1667C7.25709 16.0557 6.97817 16.0227 6.70787 16.0717C6.43757 16.1207 6.18811 16.2496 5.99171 16.4417L5.94171 16.4917C5.78689 16.6467 5.60311 16.7696 5.40091 16.8535C5.19871 16.9374 4.98191 16.9805 4.76254 16.9805C4.54317 16.9805 4.32637 16.9374 4.12417 16.8535C3.92197 16.7696 3.73819 16.6467 3.58337 16.4917C3.42838 16.3369 3.30547 16.1531 3.22157 15.9509C3.13767 15.7487 3.09457 15.5319 3.09457 15.3125C3.09457 15.0932 3.13767 14.8764 3.22157 14.6742C3.30547 14.472 3.42838 14.2882 3.58337 14.1334L3.63337 14.0834C3.82544 13.887 3.95437 13.6375 4.00337 13.3672C4.05237 13.0969 4.01929 12.818 3.90837 12.5667C3.80284 12.3202 3.62744 12.11 3.40537 11.962C3.1833 11.814 2.92503 11.7344 2.66004 11.7334H2.50004C2.05801 11.7334 1.63409 11.5577 1.32153 11.2452C1.00897 10.9326 0.833374 10.5087 0.833374 10.0667C0.833374 9.62468 1.00897 9.20076 1.32153 8.8882C1.63409 8.57564 2.05801 8.40004 2.50004 8.40004H2.57504C2.84632 8.39359 3.10935 8.30431 3.33337 8.14572C3.55739 7.98713 3.73175 7.76514 3.83337 7.50837C3.94429 7.25709 3.97737 6.97817 3.92837 6.70787C3.87937 6.43757 3.75044 6.18811 3.55837 5.99171L3.50837 5.94171C3.35338 5.78689 3.23047 5.60311 3.14657 5.40091C3.06267 5.19871 3.01957 4.98191 3.01957 4.76254C3.01957 4.54317 3.06267 4.32637 3.14657 4.12417C3.23047 3.92197 3.35338 3.73819 3.50837 3.58337C3.66319 3.42838 3.84697 3.30547 4.04917 3.22157C4.25137 3.13767 4.46817 3.09457 4.68754 3.09457C4.90691 3.09457 5.12371 3.13767 5.32591 3.22157C5.52811 3.30547 5.71189 3.42838 5.86671 3.58337L5.91671 3.63337C6.11311 3.82544 6.36257 3.95437 6.63287 4.00337C6.90317 4.05237 7.18209 4.01929 7.43337 3.90837H7.50004C7.74652 3.80284 7.95672 3.62744 8.10474 3.40537C8.25276 3.1833 8.33235 2.92503 8.33337 2.66004V2.50004C8.33337 2.05801 8.50897 1.63409 8.82153 1.32153C9.13409 1.00897 9.55801 0.833374 10 0.833374C10.442 0.833374 10.866 1.00897 11.1785 1.32153C11.4911 1.63409 11.6667 2.05801 11.6667 2.50004V2.57504C11.6677 2.84003 11.7473 3.0983 11.8953 3.32037C12.0433 3.54244 12.2535 3.71784 12.5 3.82337C12.7513 3.93429 13.0302 3.96737 13.3005 3.91837C13.5708 3.86937 13.8203 3.74044 14.0167 3.54837L14.0667 3.49837C14.2215 3.34338 14.4053 3.22047 14.6075 3.13657C14.8097 3.05267 15.0265 3.00957 15.2459 3.00957C15.4652 3.00957 15.682 3.05267 15.8842 3.13657C16.0864 3.22047 16.2702 3.34338 16.425 3.49837C16.58 3.65319 16.7029 3.83697 16.7868 4.03917C16.8707 4.24137 16.9138 4.45817 16.9138 4.67754C16.9138 4.89691 16.8707 5.11371 16.7868 5.31591C16.7029 5.51811 16.58 5.70189 16.425 5.85671L16.375 5.90671C16.1829 6.11311 16.054 6.36257 16.005 6.63287C15.956 6.90317 15.9891 7.18209 16.1 7.43337V7.50004C16.2056 7.74652 16.381 7.95672 16.6031 8.10474C16.8251 8.25276 17.0834 8.33235 17.3484 8.33337H17.5C17.942 8.33337 18.366 8.50897 18.6785 8.82153C18.9911 9.13409 19.1667 9.55801 19.1667 10C19.1667 10.442 18.9911 10.866 18.6785 11.1785C18.366 11.4911 17.942 11.6667 17.5 11.6667H17.425C17.16 11.6677 16.9017 11.7473 16.6796 11.8953C16.4576 12.0433 16.2822 12.2535 16.1667 12.5V12.5Z" stroke="currentColor" stroke-width="1.66667" stroke-linecap="round" stroke-linejoin="round"/>
</svg> 